<?xml version="1.0" encoding="UTF-8"?>
<svg id="_Слой_1" data-name="Слой 1" xmlns="http://www.w3.org/2000/svg" version="1.1" width="178px" height="100px" viewBox="0 0 1920 1080">
  <defs>
    <style>
      .cls-1 {
        fill: #e3dfed;
      }

      .cls-1, .cls-2 {
        stroke-width: 0px;
      }

      .cls-2 {
        fill: #474168;
      }
    </style>
  </defs>
  <g>
    <path class="cls-2" d="M240.12,335.59l1.37-.09c24-.97,48.12,14.75,59.14,35.56,1.75,3.3,3.2,6.83,4.33,10.39.29.9.63,3.95,1.1,4.51.32.38,9.46,2.76,10.71,3.26,6.64,2.65,12.85,5.97,18.07,10.93,5.31,5.05,10.3,11.97,11.75,19.28.72,3.64.59,7.78.69,11.5l1.9.12c21.06,1.65,37.96,7.83,51.94,24.25,5.45,6.4,10.92,15.84,12.49,24.16,1.21,6.44.75,14.45.17,21.02-1.12,12.7-9.81,26.53-19.44,34.61-14.18,11.88-30.95,17.24-49.35,17.26-5.6,0-11.25-.8-16.85-1.1-7.36-.39-14.71-.16-22.06-.82l-.18,55.07c-.1,12.82-7.6,26.17-16.57,34.94-13.97,13.68-31.52,18.45-50.64,18.22l-6.95-1.01c-16.63-2.8-31.56-12.84-41.23-26.55-7.51-10.66-11.99-27.61-9.56-40.57l.1-.49c-7.31-2.8-13.54-5.02-19.28-10.65-7.71-7.56-10.34-15.78-10.46-26.34-22.93.38-47.22-3.18-64.32-19.73-11.86-11.49-18.06-24.77-18.29-41.39-.19-13.76,5.48-28.61,15.14-38.45,12.24-12.46,28.52-18.97,45.63-21.18,5.34-.69,9.87-1.28,15.26-.67,4.07.46,8.25,1.01,12.24,1.93,3.93.9,7.84,2.25,11.85,2.77,3.3.42,6.8.25,10.13.23l-.03-25.29c-.13-7.36-.83-15.68.49-22.89,2.01-10.92,7.41-21.16,14.51-29.63,12.03-14.36,27.7-21.52,46.17-23.14Z"/>
    <path class="cls-1" d="M137.96,439.82c2.73-.11,7.62-.34,9.75,1.41l-.15,1.85c-2.47,0-8.54.64-10.26-.77l.66-2.49Z"/>
    <path class="cls-1" d="M193.2,613.98c.76,0,2.69-.06,3.28.28,1,.57,4.09,7.85,5.05,9.4,1.8,2.9,3.98,5.56,6.35,8,5.04,5.18,12.01,9.16,18.85,11.45,2.31.78,5.6,1.17,7.51,2.64l.07,3.4c-13.18-3.35-23.77-7.74-32.8-18.31-3.22-3.76-8.71-11.79-8.32-16.86Z"/>
    <path class="cls-1" d="M127.49,441.03l.98.06c.99,1.04,1.02,1.43,1.34,2.85-1.42,1.54-10.05,2.29-12.81,3.17-3.93,1.25-7.51,3.04-11.08,5.06-13.8,7.79-20.46,17.55-24.69,32.69-1.36.03-1.62.18-2.76-.64-.72-4.91,2.2-11.54,4.7-15.61,6.48-10.58,16.98-18.77,28.5-23.19,5.09-1.95,10.54-3.11,15.82-4.38Z"/>
    <path class="cls-1" d="M195.21,522.69c2.29-.04,4.71-.23,6.87.63,1.23.49,1.84.95,2.34,2.23,1.85,4.75-2.53,10.99-4.52,15.29,9.25-1.22,15.93-5.01,24.02-9.3,2.06-1.09,4.72-2.8,6.98-3.29,2.35-.51,3.55.42,5.42,1.6.55.93.98,1.75.98,2.86-.01,4.66-8.07,10.28-11.27,13.35l.37.84c3.6-.46,8.5-5.38,11.14-7.84,1.01-.94,2.36-2.51,3.72-2.81,1.79-.4,3.08-.15,4.57.81.46.74,1.03,1.6,1.17,2.47.79,4.88-7.35,11.04-11.21,13.24-1.83,1.04-4.62,1.78-5.78,3.51l.62.42c3-1.39,7.16-4.53,10.16-5.24,1.15-.28,1.42-.23,2.43.39.69,1.56,1.18,3.05.6,4.74-1.39,4.05-7.28,7.59-10.94,9.4-1.23.48-2.71.84-3.53,1.93,2.06.68,7.07-1.77,9.34-2.53l-2.21,2.53c-6.98,7.73-15.53,12.47-25.04,16.45-4.91,2.06-10.26,4.06-15.62,4.31-11.72.54-22.81-2.29-31.66-10.39-7.58-6.93-10.12-15.17-10.53-25.18,5.37-.2,10.73-.65,15.98-1.82,1.37-.31,3.03-.5,4.01-1.56,3.56-3.85,6.7-7.43,9.75-11.75,3.68-5.21,7.09-11.01,11.85-15.31Z"/>
    <path class="cls-1" d="M275.19,385.94c9.32-.84,19.14-.19,28.27,1.91,13.63,3.13,28.32,10.67,35.84,22.94,4.23,6.9,5.88,15.78,3.87,23.69-1.45,5.75-5.1,11.24-8.53,16-10.37,14.44-24.31,26.94-39.67,35.93-5.65,3.31-11.41,5.84-17.73,7.54-1.77.47-4.16,1.11-5.97.51-1.35-.44-2.14-1.07-2.7-2.35,1.11-2.63,8.36-6.59,10.88-8.51,6.79-5.19,15.97-12.16,19.94-19.91l-.61-.88c-2.34.75-5.34,4.78-7.1,6.59-8.38,8.64-21.74,21.08-33.81,23.67-2.48.53-5.31.45-7.85.5-2.62.05-5.16-.08-7.13-2,.07-.34.17-1.39.34-1.62.89-1.22,3.32-2.71,4.57-3.72l13.08-10.59c4.29-3.64,8.24-7.83,12.24-11.78l6.88-7.21-.13-1.6-1.03-.15-41.53,36.52c-4.04-2.21-6.99-3.92-10.23-7.22l18.07-22.63c4.49-5.09,9.63-9.75,14.45-14.52,2.8-2.78,5.89-5.35,7.59-8.99l-.87.37-.42.2c-2.95,1.38-5.5,4.19-7.89,6.38-5.73,5.26-11.37,10.71-16.4,16.66l-8.91,11.58c-1.25,1.62-2.42,3.68-4.4,4.25-1.08-.84-2.34-1.64-2.66-3.05l-.09-.46c-.84-4.12.67-8.59,1.93-12.49,2.14-6.64,5.48-12.25,9.39-17.98,10.66-15.65,24.06-26.44,40.76-35.07-8.65.3-18.09.82-25.36-4.81-.96-.75-1.7-1.8-1.79-3.03-.19-2.55.21-5.05,1.91-7.03,4.8-5.6,15.93-7.18,22.81-7.65Z"/>
  </g>
  <path class="cls-2" d="M1774.82,590.55c0,8.15,9.55,15.74,17.99,15.74,4.22,0,7.59-1.41,10.68-5.06l43.3-51.45c3.37-3.94,4.5-7.31,4.5-11.25,0-4.5-2.25-8.72-5.62-11.81-9.56-8.72-30.08-19.12-52.01-19.12-42.74,0-74.51,32.9-74.51,74.51s23.35,74.51,74.51,74.51c.87,0,1.74-.02,2.6-.05,0,.03,22.36-2.05,22.34-2.13,2.95-.47,5.66-1.05,8.17-1.72,16.04-4.32,12.3-31.36-4.29-30.4-3.21.19-19.4,2.01-27.34,2.26,0-.01,0,.01,0,0-.49.02-.98.02-1.48,0-29.5-.9-39.93-17.16-39.93-42.46s15.75-42.46,39.93-42.46c6.19,0,13.78,1.69,18.56,5.06l-34.02,36.56c-2.53,2.53-3.37,5.9-3.37,9.28Z"/>
  <path class="cls-2" d="M739.98,632.89c0,12.62-10.1,23.73-24.74,23.73s-24.24-9.59-24.24-23.73v-100.99h-92.23v100.99c0,12.62-9.59,23.73-24.24,23.73s-24.74-9.59-24.74-23.73v-271.66c0-14.64,10.1-23.73,24.74-23.73s24.24,9.09,24.24,23.73v122.7h92.23v-122.7c0-14.64,9.59-23.73,24.24-23.73s24.74,9.09,24.74,23.73v271.66Z"/>
  <g>
    <path class="cls-2" d="M798.65,477.91c-18.83,0-34.05-14.82-34.05-33.65s15.22-34.05,34.05-34.05c17.63,0,33.65,15.22,33.65,34.05s-15.22,33.65-33.65,33.65Z"/>
    <path class="cls-2" d="M822.19,633.39c0,14.64-9.09,23.23-23.73,23.23s-23.73-8.58-23.73-23.23v-102.16c0-14.64,8.58-23.23,23.23-23.23s24.24,8.58,24.24,23.23v102.16Z"/>
  </g>
  <g>
    <path class="cls-2" d="M1515.21,477.23c-18.83,0-34.05-14.82-34.05-33.65s15.22-34.05,34.05-34.05c17.63,0,33.65,15.22,33.65,34.05s-15.22,33.65-33.65,33.65Z"/>
    <path class="cls-2" d="M1538.74,633.39c0,14.64-9.09,23.23-23.73,23.23s-23.73-8.58-23.73-23.23v-102.16c0-14.64,8.58-23.23,23.23-23.23s24.24,8.58,24.24,23.23v102.16Z"/>
  </g>
  <path class="cls-2" d="M1683.75,514.84c-13.91-4.57-23.5.12-28.51,13.88l-21.04,69.3-19.78-69.3c-5.01-13.76-15.26-18.81-29.46-13.54-10.22,3.79-14.26,16.01-9.25,29.77l34.94,96c10.41,20.71,38.54,20.86,47.1,0l34.94-96c5.01-13.76,2.28-26.43-8.94-30.12Z"/>
  <path class="cls-2" d="M1125.86,573.81c0-36.86-5.55-45.95-32.32-45.95-10.6,0-14.31,2.02-24.91,3.53v102c0,14.64-9.09,23.23-23.73,23.23s-23.73-8.58-23.73-23.23v-276.71c0-14.64,8.58-23.23,23.23-23.23s24.24,8.58,24.24,23.23v127.75c9.59-2.02,14.31-3.53,27.94-3.53,51,0,76.25,29.29,76.25,94.42v58.07c0,14.64-8.58,23.23-23.23,23.23s-23.73-8.58-23.73-23.23v-59.58Z"/>
  <path class="cls-2" d="M1438.29,341.53c17.67,0,26.76,8.08,26.76,24.74s-12.62,22.72-26.26,22.72h-41.41c-33.83,0-40.9,17.17-40.9,53.02v43.93h76.25c14.64,0,24.24,9.09,24.24,23.73s-9.59,24.24-24.24,24.24h-76.25v98.97c0,14.64-10.1,23.73-24.74,23.73-13.13,0-24.24-9.09-24.24-23.73v-211.57c0-59.58,41.41-79.78,96.44-79.78h34.34Z"/>
  <text/>
  <text/>
  <path class="cls-2" d="M864.67,726.36c0-11.36,7.95-19.18,20.44-19.18,7.95,0,16.28.76,22.71.76,34.82,0,39.36-9.46,39.36-28.01v-10.6c-49.96,0-91.22-23.09-91.22-80.24,0-44.94,25.38-81,91.22-81,6.81,0,12.11,0,18.55.76,14,1.89,20.44,11.35,20.82,16.65v153.29c0,41.64-22.71,67.75-81.76,67.75-6.43,0-13.63,0-20.06-.76-9.84-1.14-20.06-6.94-20.06-19.43ZM947.18,630.34v-82.89c-32.93,0-51.85,8.33-51.85,41.64,0,31.04,17.79,40.88,51.85,41.26Z"/>
</svg>