<svg width="19" height="19" viewBox="0 0 19 19" fill="none" xmlns="http://www.w3.org/2000/svg">
<g clip-path="url(#clip0_5435_11544)">
<path d="M16.625 4.75002H14.1154L12.6667 3.16669H8.70833C8.27111 3.16669 7.91667 3.52113 7.91667 3.95835C7.91667 4.39558 8.27111 4.75002 8.70833 4.75002H11.97L13.4188 6.33335H16.625V15.8334H3.95833V9.50002C3.95833 9.0628 3.60389 8.70835 3.16667 8.70835C2.72944 8.70835 2.375 9.0628 2.375 9.50002V15.8334C2.375 16.7042 3.0875 17.4167 3.95833 17.4167H16.625C17.4958 17.4167 18.2083 16.7042 18.2083 15.8334V6.33335C18.2083 5.46252 17.4958 4.75002 16.625 4.75002ZM6.33333 11.0834C6.33333 13.2684 8.10667 15.0417 10.2917 15.0417C12.4767 15.0417 14.25 13.2684 14.25 11.0834C14.25 8.89835 12.4767 7.12502 10.2917 7.12502C8.10667 7.12502 6.33333 8.89835 6.33333 11.0834ZM10.2917 8.70835C11.5979 8.70835 12.6667 9.7771 12.6667 11.0834C12.6667 12.3896 11.5979 13.4584 10.2917 13.4584C8.98542 13.4584 7.91667 12.3896 7.91667 11.0834C7.91667 9.7771 8.98542 8.70835 10.2917 8.70835ZM3.95833 4.75002H5.54167C5.97889 4.75002 6.33333 4.39558 6.33333 3.95835C6.33333 3.52113 5.97889 3.16669 5.54167 3.16669H3.95833V1.58335C3.95833 1.14613 3.60389 0.791687 3.16667 0.791687C2.72944 0.791687 2.375 1.14613 2.375 1.58335V3.16669H0.791667C0.354441 3.16669 0 3.52113 0 3.95835C0 4.39558 0.354441 4.75002 0.791667 4.75002H2.375V6.33335C2.375 6.77058 2.72944 7.12502 3.16667 7.12502C3.60389 7.12502 3.95833 6.77058 3.95833 6.33335V4.75002Z" fill="#474168"/>
</g>
<defs>
<clipPath id="clip0_5435_11544">
<rect width="19" height="19" fill="white"/>
</clipPath>
</defs>
</svg>
