<svg width="19" height="19" viewBox="0 0 19 19" fill="none" xmlns="http://www.w3.org/2000/svg">
<path d="M7.91732 4.74992H11.084C11.084 4.32999 10.9172 3.92727 10.6202 3.63033C10.3233 3.3334 9.92058 3.16659 9.50065 3.16659C9.08073 3.16659 8.678 3.3334 8.38107 3.63033C8.08413 3.92727 7.91732 4.32999 7.91732 4.74992ZM6.33398 4.74992C6.33398 3.91007 6.66761 3.10461 7.26148 2.51075C7.85534 1.91688 8.6608 1.58325 9.50065 1.58325C10.3405 1.58325 11.146 1.91688 11.7398 2.51075C12.3337 3.10461 12.6673 3.91007 12.6673 4.74992H16.6257C16.8356 4.74992 17.037 4.83333 17.1854 4.98179C17.3339 5.13026 17.4173 5.33162 17.4173 5.54159C17.4173 5.75155 17.3339 5.95291 17.1854 6.10138C17.037 6.24984 16.8356 6.33325 16.6257 6.33325H15.9274L15.226 14.5191C15.1586 15.3095 14.7969 16.0459 14.2125 16.5824C13.6282 17.119 12.8637 17.4167 12.0704 17.4166H6.9309C6.13758 17.4167 5.37312 17.119 4.78877 16.5824C4.20442 16.0459 3.84275 15.3095 3.77532 14.5191L3.0739 6.33325H2.37565C2.16569 6.33325 1.96432 6.24984 1.81586 6.10138C1.66739 5.95291 1.58398 5.75155 1.58398 5.54159C1.58398 5.33162 1.66739 5.13026 1.81586 4.98179C1.96432 4.83333 2.16569 4.74992 2.37565 4.74992H6.33398ZM11.8757 9.49992C11.8757 9.28996 11.7922 9.08859 11.6438 8.94013C11.4953 8.79166 11.2939 8.70825 11.084 8.70825C10.874 8.70825 10.6727 8.79166 10.5242 8.94013C10.3757 9.08859 10.2923 9.28996 10.2923 9.49992V12.6666C10.2923 12.8765 10.3757 13.0779 10.5242 13.2264C10.6727 13.3748 10.874 13.4583 11.084 13.4583C11.2939 13.4583 11.4953 13.3748 11.6438 13.2264C11.7922 13.0779 11.8757 12.8765 11.8757 12.6666V9.49992ZM7.91732 8.70825C8.12728 8.70825 8.32864 8.79166 8.47711 8.94013C8.62558 9.08859 8.70898 9.28996 8.70898 9.49992V12.6666C8.70898 12.8765 8.62558 13.0779 8.47711 13.2264C8.32864 13.3748 8.12728 13.4583 7.91732 13.4583C7.70736 13.4583 7.50599 13.3748 7.35753 13.2264C7.20906 13.0779 7.12565 12.8765 7.12565 12.6666V9.49992C7.12565 9.28996 7.20906 9.08859 7.35753 8.94013C7.50599 8.79166 7.70736 8.70825 7.91732 8.70825ZM5.35232 14.3845C5.38605 14.7799 5.56699 15.1481 5.85934 15.4164C6.15168 15.6847 6.5341 15.8335 6.9309 15.8333H12.0704C12.4669 15.8331 12.849 15.6842 13.141 15.4159C13.433 15.1477 13.6137 14.7796 13.6474 14.3845L14.3377 6.33325H4.66357L5.35232 14.3845Z" fill="#474168"/>
</svg>
