<svg width="19" height="19" viewBox="0 0 19 19" fill="none" xmlns="http://www.w3.org/2000/svg">
<path d="M7.9167 13.8937L6.51545 15.2554C6.14801 15.6228 5.64967 15.8292 5.13003 15.8292C4.6104 15.8292 4.11205 15.6228 3.74462 15.2554C3.37718 14.888 3.17076 14.3896 3.17076 13.87C3.17076 13.3503 3.37718 12.852 3.74462 12.4846L7.33878 8.88247C7.69156 8.52855 8.16688 8.32378 8.66642 8.31051C9.16596 8.29725 9.65148 8.47652 10.0225 8.81122L10.1175 8.89039C10.2677 9.03736 10.47 9.11868 10.6801 9.11646C10.8902 9.11423 11.0908 9.02864 11.2377 8.87851C11.3847 8.72839 11.466 8.52603 11.4638 8.31595C11.4616 8.10587 11.376 7.90528 11.2259 7.75831C11.1812 7.70053 11.1336 7.64505 11.0834 7.59206C10.4076 7.0041 9.53355 6.69498 8.63836 6.72732C7.74317 6.75965 6.89373 7.13103 6.26212 7.76622L2.62045 11.3683C2.00165 12.0419 1.66698 12.9284 1.68634 13.8429C1.7057 14.7573 2.07759 15.6289 2.72434 16.2757C3.3711 16.9224 4.2427 17.2943 5.15715 17.3137C6.07159 17.333 6.95815 16.9984 7.6317 16.3796L9.00128 15.0416C9.13651 14.8941 9.21085 14.7008 9.20934 14.5007C9.20783 14.3006 9.13058 14.1085 8.99314 13.963C8.8557 13.8175 8.66826 13.7295 8.46854 13.7167C8.26883 13.7038 8.07166 13.7671 7.9167 13.8937ZM16.3796 2.62039C15.7137 1.95856 14.8129 1.5871 13.874 1.5871C12.9351 1.5871 12.0343 1.95856 11.3684 2.62039L9.99878 3.95831C9.86355 4.10583 9.78922 4.2991 9.79073 4.49923C9.79224 4.69935 9.86949 4.89147 10.0069 5.03694C10.1444 5.18241 10.3318 5.27043 10.5315 5.28328C10.7312 5.29613 10.9284 5.23287 11.0834 5.10622L12.453 3.74456C12.8204 3.37712 13.3187 3.1707 13.8384 3.1707C14.358 3.1707 14.8563 3.37712 15.2238 3.74456C15.5912 4.11199 15.7976 4.61034 15.7976 5.12997C15.7976 5.64961 15.5912 6.14795 15.2238 6.51539L11.6296 10.1175C11.2768 10.4714 10.8015 10.6762 10.302 10.6894C9.80245 10.7027 9.31693 10.5234 8.94587 10.1887L8.85087 10.1096C8.70074 9.96258 8.49838 9.88126 8.2883 9.88349C8.07822 9.88572 7.87763 9.97131 7.73066 10.1214C7.58368 10.2716 7.50237 10.4739 7.50459 10.684C7.50682 10.8941 7.59241 11.0947 7.74253 11.2416C7.80004 11.3005 7.86083 11.356 7.92462 11.4079C8.60124 11.9941 9.47488 12.302 10.3695 12.2697C11.2642 12.2374 12.1133 11.8672 12.7459 11.2337L16.3479 7.63164C17.014 6.96987 17.3912 6.07145 17.3971 5.13254C17.403 4.19364 17.0373 3.29053 16.3796 2.62039Z" fill="#474168"/>
</svg>
