<svg width="19" height="19" viewBox="0 0 19 19" fill="none" xmlns="http://www.w3.org/2000/svg">
<path d="M11.8757 3.95839L15.0423 7.12506M13.459 2.37506C13.6606 2.13679 13.91 1.94285 14.1913 1.8056C14.4726 1.66834 14.7796 1.59078 15.0927 1.57786C15.4058 1.56494 15.7183 1.61694 16.01 1.73055C16.3018 1.84416 16.5666 2.01689 16.7874 2.23772C17.0082 2.45855 17.1803 2.72265 17.2927 3.01317C17.405 3.3037 17.4552 3.61428 17.44 3.92512C17.4247 4.23597 17.3445 4.54025 17.2043 4.81859C17.0641 5.09692 16.867 5.3432 16.6257 5.54172L5.93815 16.2292L1.58398 17.4167L2.77148 13.0626L13.459 2.37506Z" stroke="#474168" stroke-width="1.6" stroke-linecap="round" stroke-linejoin="round"/>
</svg>
