<?xml version="1.0" standalone="no"?>
<!DOCTYPE svg PUBLIC "-//W3C//DTD SVG 20010904//EN"
 "http://www.w3.org/TR/2001/REC-SVG-20010904/DTD/svg10.dtd">
<svg version="1.0" xmlns="http://www.w3.org/2000/svg"
 width="1280.000000pt" height="1280.000000pt" viewBox="0 0 1280.000000 1280.000000"
 preserveAspectRatio="xMidYMid meet">
<metadata>
Created by potrace 1.15, written by Peter Selinger 2001-2017
</metadata>
<g transform="translate(0.000000,1280.000000) scale(0.100000,-0.100000)"
fill="#474168" stroke="none">
<path d="M6100 12794 c-1144 -62 -2186 -393 -3130 -994 -1629 -1037 -2717
-2773 -2929 -4675 -30 -267 -35 -375 -35 -725 0 -350 5 -458 35 -725 111 -999
471 -1980 1037 -2825 1051 -1568 2743 -2603 4597 -2809 267 -30 375 -35 725
-35 350 0 458 5 725 35 951 106 1885 437 2705 959 1629 1037 2717 2773 2929
4675 30 267 35 375 35 725 0 350 -5 458 -35 725 -123 1106 -559 2205 -1227
3095 -1064 1416 -2608 2313 -4362 2535 -243 30 -832 52 -1070 39z"/>
</g>
</svg>
