<svg width="539" height="576" fill="none" xmlns="http://www.w3.org/2000/svg"><g clip-path="url(#a)"><path d="M146.318 450.46c-.589-.335-1.231-.554-1.874-.762-2.394-.265-3.815.154-5.706 1.65-1.575 1.248-2.798 3.15-3.065 5.168-.199 1.494.541 3.532 1.527 4.656 1.485 1.681 3.614 2.461 5.783 2.741 2.289-.004 4.7-.535 6.394-2.206.234-.232.396-.481.578-.749l.172-.247c.865-1.327.747-3.304.374-4.778-.621-2.441-1.988-4.22-4.183-5.473zm-.061 8.442c-1.116.386-1.854.27-2.993.025-1.241-.864-2.239-1.439-2.858-2.845.217-.765.299-1.274 1.09-1.674.931-.472 1.901-.403 2.882-.183l.336.118c1.09.546 1.627 1.347 1.957 2.495.229.79.002 1.408-.414 2.064z" fill="#474168"/><path d="m144.715 454.344-.336-.118c-.98-.22-1.951-.287-2.881.183-.791.4-.873.908-1.09 1.674.619 1.406 1.617 1.981 2.857 2.845 1.14.243 1.879.359 2.994-.025.416-.657.642-1.274.414-2.065-.33-1.148-.868-1.948-1.958-2.494z" fill="#F0E5E3"/><path d="M377.827 99.631c1.011.946 2.117 1.411 3.472 1.637 3.047-.11 6.12-.599 8.278-3.014 1.084-1.215 1.833-2.776 1.741-4.425-.139-2.506-2.095-4.525-3.939-6.032a8.474 8.474 0 0 0-2.672-1.5c-2.707-.158-4.864-.07-7.012 1.808l-.989 1.003c-1.285 1.411-1.825 2.674-1.765 4.621.077 2.49 1.096 4.231 2.885 5.904l.001-.002zm2.201-8.527c1.019-1.032 2.289-1.356 3.695-1.322.358.054.7.101 1.039.232 1.541.597 2.709 2.356 3.266 3.835-.175.612-.363 1.231-.736 1.755-1.089 1.527-2.705 2.008-4.442 2.314-.88-.224-1.885-.425-2.618-.985-1.11-.847-1.38-1.922-1.515-3.247.313-.919.613-1.876 1.311-2.582z" fill="#474168"/><path d="M380.234 96.934c.733.558 1.737.76 2.617.984 1.738-.306 3.353-.786 4.443-2.314.373-.523.561-1.142.736-1.754-.557-1.48-1.725-3.238-3.266-3.835-.339-.131-.681-.178-1.039-.232-1.407-.033-2.676.29-3.695 1.322-.698.706-.997 1.663-1.312 2.581.136 1.324.405 2.4 1.516 3.248z" fill="#F0E5E3"/><path d="M379.099 157.314c1.2 1.502 3.188 2.276 5.064 2.438l.309.022c3.506-.473 6.969-1.797 9.263-4.636 1.132-1.401 1.972-3.802 1.738-5.618-.338-2.622-2.264-4.545-4.313-6.025-1.455-1.049-2.987-2.013-4.703-2.567-2.455-.373-4.259-.65-6.386.883-1.863 1.342-3.143 3.323-3.511 5.602-.449 2.783.763 7.679 2.539 9.901zm3.213-10.926c.797-.876 1.462-.808 2.561-.894 1.332.229 3.021.987 4.02 1.932 1.121 1.061 1.316 2.192 1.417 3.664-.794 1.945-2.681 2.787-4.491 3.571-.664.052-1.058.002-1.683-.179-1.241-1.5-2.513-3.071-2.777-5.072-.133-1.012.263-2.262.953-3.02v-.002z" fill="#474168"/><path d="M384.136 154.482c.625.181 1.019.231 1.683.179 1.811-.784 3.697-1.626 4.491-3.571-.101-1.471-.296-2.602-1.417-3.664-.998-.944-2.686-1.704-4.019-1.932-1.1.086-1.767.019-2.562.894-.689.758-1.086 2.009-.953 3.02.264 2.003 1.534 3.574 2.776 5.072l.001.002z" fill="#F0E5E3"/><path d="m340.867 474.139-.216.126c-2.682 1.646-4.976 4.309-7.383 6.359-1.831 1.56-3.93 2.743-6.09 3.782-3.658 1.767-7.825 2.956-11.751 3.959-10.646 2.715-21.844 3.699-32.828 3.209l-11.524-.824c-3.337-.331-6.65-.811-10.009-.854-1.202-.015-2.514-.099-3.641.357l.134.46c6.876 3.145 13.629 3.65 21.06 4.052 15.522.838 32.034-.412 46.695-5.914 5.498-2.063 12.353-6.448 14.885-11.92l.894-2.316-.224-.476h-.002zM81.53 438.448c-1.61-1.845-3.353-2.828-5.63-3.669-3.648-.807-7.36-1.026-10.653 1.06-1.915 1.212-3.136 3.205-3.593 5.401-.653 3.159.625 6.765 2.39 9.355 1.457 2.129 3.307 2.739 5.74 3.321 3.837.343 8.529-.185 11.58-2.754 1.532-1.293 2.754-2.652 3.012-4.724.343-2.734-1.084-5.972-2.847-7.987l.001-.003zm-1.78 9.564c-2.035 1.71-5.155 1.601-7.627 1.488-2.068-.321-3.986-1.085-5.42-2.648-1.14-1.248-2.002-2.913-1.812-4.65.129-1.17 1.326-2.708 2.232-3.408 2.027-1.565 4.595-1.434 6.976-1.04 1.558.515 3.142 1.034 4.301 2.247 1.145 1.193 2.803 3.713 2.651 5.426-.081.913-.594 1.99-1.302 2.583l.001.002z" fill="#474168"/><path d="M78.401 440.003c-1.16-1.214-2.742-1.734-4.301-2.247-2.382-.392-4.95-.525-6.976 1.039-.906.701-2.105 2.238-2.232 3.409-.191 1.738.67 3.401 1.812 4.65 1.434 1.563 3.352 2.327 5.42 2.648 2.472.113 5.593.221 7.627-1.488.708-.593 1.221-1.672 1.302-2.583.152-1.713-1.506-4.233-2.65-5.426l-.002-.002z" fill="#F0E5E3"/><path d="M203.017 132.859c1.313 1.739 3.028 2.66 4.996 3.484 3.401 1.07 6.566.946 9.758-.742 2.586-1.367 4.387-4.203 5.23-6.948.789-2.569.281-7.09-1.133-9.377-1.064-1.722-2.572-3.156-4.534-3.722-4.345-.701-8.251-.374-11.926 2.328-2.616 1.925-3.952 4.122-4.405 7.36-.366 2.613.419 5.509 2.012 7.618l.002-.001zm3.804-11.949c2.582-2.189 6.177-2.69 9.41-2.334.777.384 1.641.75 2.133 1.5 1.36 2.072 2.031 4.925 1.393 7.358-.617 2.35-2.049 4.146-4.16 5.301-2.385 1.304-4.63.845-7.125.131l-.154-.102-.253-.173c-.617-.408-1.25-.801-1.774-1.329-1.163-1.176-2.063-3.244-1.993-4.922.084-2.02.976-4.115 2.526-5.429l-.003-.001z" fill="#474168"/><path d="M206.29 131.261c.524.529 1.157.922 1.773 1.33l.254.173.154.101c2.496.715 4.741 1.172 7.125-.131 2.112-1.154 3.544-2.952 4.16-5.301.639-2.432-.033-5.285-1.393-7.358-.491-.749-1.356-1.116-2.133-1.499-3.234-.358-6.828.145-9.41 2.333-1.55 1.314-2.442 3.409-2.526 5.429-.07 1.678.83 3.745 1.993 4.922l.003.001z" fill="#F0E5E3"/><path d="M245.309 115.462c.79.817 2.098 1.105 3.199 1.202 1.653.147 3.525-.179 5.12.187 3.253.748 3.657 6.509 3.732 9.187.061 2.183-.162 4.484 1.571 6.146l.726.622c1.41.594 2.491.655 3.926.052 1.16-.489 1.82-1.292 2.277-2.465 1.579-4.06-1.181-10.773 3.621-13.148 3.279-1.623 9.228 1.809 10.76-2.719.356-1.05.378-2.079-.166-3.065-1.019-1.843-3.027-2.819-4.739-3.888-2.81-1.753-4.842-3.542-6.05-6.723-.918-2.421-1.155-4.624-1.144-7.192.006-1.523.283-3.844-.282-5.26-.382-.956-1.217-1.444-2.103-1.86-1.074-.134-2.003-.159-2.918.507-2.612 1.898-2.245 5.588-2.873 8.416-.609 2.74-1.683 6.139-3.487 8.319-1.305 1.574-3.276 2.712-5.194 3.359-2.559.862-7.315.448-7.554 4.281-.094 1.516.532 2.967 1.574 4.045l.004-.003zm18.258-14.745c.866 2.219 1.96 5.054 3.595 6.812 1.036 1.112 2.53 2.077 3.755 2.982-1.602.168-3.167.315-4.649.989-2.343 1.064-2.894 2.458-3.761 4.723l-.505.96-.622-1.222c-1.393-2.655-2.765-4.393-5.707-5.284l-.414-.122c4.548-2.495 6.28-5.161 8.309-9.837l-.001-.001z" fill="#474168"/><path d="m261.378 115.96.623 1.222.504-.96c.868-2.264 1.417-3.659 3.761-4.723 1.484-.673 3.048-.821 4.65-.989-1.226-.904-2.72-1.868-3.755-2.982-1.635-1.758-2.729-4.593-3.596-6.812-2.028 4.676-3.761 7.343-8.309 9.838l.415.122c2.942.889 4.315 2.629 5.706 5.283l.001.001z" fill="#F0E5E3"/><path d="M243.258 482.611c-1.764-2.395-2.936-5.005-2.909-8.018.034-3.93 1.432-7.927 2.493-11.676.397-1.402 1.083-3.114 1.081-4.554-.003-.481-.173-1.361-.507-1.727-.72-.794-1.587-1.069-2.629-1.222-3.299.555-6.362 6.107-8.968 8.332-2.466 2.104-5.114 3.49-8.176 4.526-4.664 1.578-10.103 1.884-14.995 1.516-1.557-.114-3.617-.722-5.123-.504-.93.133-1.199.437-1.909 1.018-.439 1.242-.536 1.448-.229 2.715 3.449 4.506 16.719 6.105 15.724 13.409-.739 5.421-3.49 10.319-4.431 15.671.033 1.277.018 2.193.793 3.283.84.51 1.419.739 2.404.801 2.574-1.042 4.358-4.466 5.941-6.663 1.894-2.633 3.814-5.181 5.985-7.603.457-.508 1.514-1.832 2.124-2.026 2.85-.909 8.308.395 11.298 1.13 1.162.284 3.272 1.092 4.406.781 1.21-.33 1.468-1.205 1.936-2.231.111-2.614-2.818-4.947-4.305-6.961l-.004.003zm-11.6 1.043c-5.526.066-7.93 5.646-11.289 9.152l1.149-4.673c.358-2.257.465-4.162.223-6.451-2.254-3.512-6.938-6.021-10.587-7.83 2.13.115 4.31.282 6.435.063 7.774-.808 13.975-4.485 19.721-9.546l-1.52 5.723c-1.493 6.296.147 10.236 3.445 15.616-2.432-.904-4.945-2.083-7.578-2.052l.001-.002z" fill="#474168"/><path d="m235.79 470.092 1.521-5.723c-5.746 5.061-11.95 8.737-19.722 9.546-2.125.218-4.305.053-6.435-.063 3.649 1.809 8.333 4.318 10.588 7.83.241 2.289.135 4.195-.224 6.451l-1.148 4.673c3.359-3.506 5.764-9.085 11.288-9.152 2.633-.031 5.148 1.149 7.578 2.053-3.299-5.381-4.939-9.319-3.446-15.617v.002z" fill="#F0E5E3"/><path d="M422.158 431.05c2.97-10.017 4.613-20.448 6.931-30.627l10.777-47.865 5.404-28.506 7.043-38.762c.968-5.764 2.375-11.853 2.693-17.68.261-4.798-.255-9.698-1.937-14.219-1.358-3.653-3.273-6.66-6.306-9.13-.637-.518-4.084-2.44-4.014-2.796.61-3.137.289-6.344-.087-9.488-.951-7.954-2.971-15.54-7.543-22.221-7.73-11.292-18.687-18.563-31.704-22.515-5.756-1.747-11.736-2.923-17.583-4.313l-26.192-5.853-97.245-17.37-63.519-9.403-34.295-4.567c-9.913-1.051-19.954-1.957-29.905-.816-5.283.606-9.954 2.432-14.192 5.661-12.58 9.589-18.241 25.086-22.465 39.712-1.972 6.831-3.805 13.737-5.114 20.732l-2.967 18.437-9.098 52.143c-1.845 14.434-3.399 28.879-3.96 43.425-.337 8.743-.602 17.151.659 25.841.716 4.947 1.956 10.122 5.066 14.147 2.8 3.621 7.86 6.985 12.522 7.309l.338.005c.992.056 2.3.767 3.241 1.136-.774 8.963-2.555 21.957 3.678 29.286.42.496 1.806 1.676 1.993 2.151.229.581-.035 2.763-.017 3.538.134 5.897 1.999 11.67 6.483 15.68 3.184 2.851 7.223 4.336 11.295 5.442 9.37 2.545 19.344 3.426 28.922 4.957l76.583 10.14 30.876 3.536 43.572 6.525 40.042 5.021c16.683 2.067 33.991 4.648 50.811 4.154 2.084-.061 5.861.103 7.629-.963.164-.605.287-1.114.316-1.745 1.917-.994 3.644-2.091 5.207-3.591 2.334-2.236 3.792-4.931 6.984-6.047 1.021-.357 1.392-1.673 1.813-2.594 2.681-5.865 5.421-11.705 7.26-17.909l.005.002zm-3.925-149.43c.731-.991 1.979-1.29 3.129-1.41.384.053.626.102.978.254 1.606.688 2.577 2.124 3.206 3.69.865 2.155 1.641 4.566.539 6.792-.717 1.453-2.446 1.999-3.874 2.459-1.203-.074-1.957-.252-3.004-.859-.337-.644-.51-1.209-.668-1.912-.552-2.457-1.973-6.758-.307-9.016l.001.002zm.271 31.511c.42.077.827.197 1.217.372.759.343 1.304 1.054 1.572 1.832.682 1.968.34 7.697-.73 9.599-.808 1.437-1.906 1.696-3.39 2.061-.661-.081-1.116-.197-1.721-.49-.525-.254-.849-.445-.988-1.057-.438-1.936.53-9.63 1.771-11.204.603-.766 1.343-.974 2.267-1.113h.002zm-322.12 52.97c-4.138-1.631-7.995-3.414-10.207-7.524-3.868-7.183-3.934-17.006-4.07-25.028-.288-16.852 1.462-33.249 3.556-49.94l4.304-31.104 5.665-28.56 2.222-12.709 6.827-26.799c3.619-11.749 10.128-26.113 21.546-32.056 7.89-4.107 17.641-3.446 26.306-3.03 13.399.645 27.028 2.905 40.301 4.887l50.298 7.725 109.479 18.485c17.113 3.615 34.168 7.97 50.843 13.245 6.111 1.87 14.91 5.42 18.244 11.237 3.257 5.684 3.391 13.665 2.894 20.057-.637 8.224-2.642 16.494-4.273 24.573l-8.933 42.822-7.812 40.406c-2.18 12.13-4.034 24.643-7.193 36.557-2.697 10.16-6.244 19.533-15.858 24.971-4.357 2.465-8.83 2.591-13.703 2.483l-20.652-1.416-44.18-4.653-65.681-7.117-19.723-2.405-56.908-5.684c-21.327-1.987-42.581-3.638-63.292-9.425v.002zm8.645 28.719c-1.279-4.287-1.334-8.829-.896-13.245 6.757 2.227 13.905 3.162 20.913 4.294l35.797 5.272 110.993 13.842 69.735 7.779 30.586.662c5.406-.006 10.902.414 16.293.085 4.879-.296 10.345-2.309 14.024-5.585 1.584-1.412 2.98-3.204 4.38-4.804l.186.421c-3.457 10.813-8.585 25.758-19.261 31.547-6.819 3.697-16.15 2.537-23.711 2.115-22.063-1.231-44.136-4.606-66.025-7.541l-52.579-6.704-42.799-6.068-48.164-6.25c-12.585-1.602-25.842-2.781-38.008-6.433l-2.198-.746c-4.829-1.878-7.179-3.905-9.265-8.643l-.001.002zm296.174 59.335c-5.743 2.909-12.157 3.373-18.487 3.165-9.167-.302-18.279-1.652-27.373-2.787l-25.677-2.854-19.653-1.968-57.934-7.806-27.88-3.436-56.993-8.369-22.766-3.092c-8.285-.998-16.511-1.671-24.47-4.35-2.296-.971-4.313-2.304-6.035-4.124-2.888-3.042-3.671-7.136-3.561-11.198 2.599.922 5.235 2.132 7.876 2.877 4.62 1.299 9.716 1.859 14.461 2.581l30.236 4.096 88.824 11.749 39.512 4.852 32.602 4.152 29.672 2.665 19.45 1.474c2.698.148 5.61.493 8.302.25 4.579-.414 9.125-2.486 12.758-5.25 5.646-4.293 8.625-10.634 11.446-16.944 8.486-18.968 12.306-39.687 16.066-59.994l10.342-63.921 4.334-22.366c2.026-9.2 4.269-18.364 5.527-27.71 1.912 1.736 4.049 3.796 5.276 6.092 2.481 4.64 3.535 10.281 3.314 15.509-.313 7.446-2.129 15.416-3.524 22.737l-4.917 26.114-7.879 41.221-8.869 37.133c-3.052 13.385-5.333 26.939-9.509 40.049-2.531 7.948-6.758 15.545-14.47 19.451l-.001.002z" fill="#474168"/><path d="M414.466 325.447c.139.613.461.804.988 1.058.604.292 1.058.407 1.72.489 1.483-.364 2.583-.622 3.391-2.061 1.07-1.901 1.412-7.631.73-9.598-.269-.777-.813-1.49-1.572-1.833a5.286 5.286 0 0 0-1.217-.372c-.923.136-1.664.345-2.267 1.112-1.242 1.576-2.209 9.269-1.771 11.204l-.002.001zM419.207 292.546c1.047.607 1.799.786 3.004.859 1.428-.46 3.156-1.007 3.875-2.459 1.099-2.227.325-4.639-.54-6.792-.629-1.566-1.6-3.002-3.206-3.69-.352-.152-.593-.201-.978-.254-1.149.121-2.398.419-3.129 1.41-1.666 2.258-.246 6.559.306 9.016.159.703.332 1.266.669 1.912l-.001-.002z" fill="#F0E5E3"/><path d="M143.282 352.217c-.37-.796-1.068-1.169-1.898-1.372-.257-.062-.342-.049-.578-.042-1.168.276-1.419.253-2.194 1.142-.332 1.054-.418 1.867.118 2.882.383.729.804 1.156 1.645 1.262l.339.011c1.196-.223 1.674-.701 2.471-1.591.279-.766.461-1.509.097-2.292zM198.715 274.112c.973-.25 1.868-.308 2.422-1.261.552-.95.157-1.539-.211-2.45-.834-.712-1.635-1.059-2.658-1.439-1.076.141-1.631.063-2.466.84-.244 1.112-.399 1.704.237 2.759.618 1.026 1.568 1.368 2.676 1.551zM353.982 295.584c.99.327 1.756.246 2.692-.217 1.576-.781 4.316-2.354 4.918-3.978-.377-.51-.405-.553-1.003-.754-2.054-.084-5.74 1.663-7.296 2.962-.168.815-.008 1.116.508 1.795l.183.192h-.002zM175.48 217.429c-.553.431-.87 1.159-.918 1.849-.054.77.348 1.707.942 2.203.365.304.846.501 1.275.694 1.168.045 1.813-.059 2.829-.645.639-.931.834-1.491.841-2.623-.474-.894-.927-1.742-1.858-2.227-1.114-.074-2.196.035-3.113.748l.002.001zM149.432 186.695c.821.451 1.43.79 2.374.861 1.055-.139 1.342-.163 2.182-.791.619-1.853.324-2.679-.521-4.385-.338-.683-.36-.923-1.148-1.154l-.302-.046c-1.677.865-1.952 1.501-3.012 3.022-.104 1.185-.076 1.419.428 2.495l-.001-.002zM163.32 214.683l-1.479-.472c-1.11.059-2.247.147-3.024 1.054-.42.492-.487 1.279-.571 1.898.495 1.235.798 2.578 2.159 3.093l.392.137c1.153-.143 2.259-.383 3.013-1.351.523-.671.743-1.539.555-2.369-.169-.749-.612-1.37-1.047-1.989l.002-.001zM321.159 287.858c1.086-.573 2.083-1.266 3.213-1.759 1.503-.654 3.768-1.21 4.907-2.397-.205-.508-.098-.511-.624-.769-2.908-.403-7.647.706-9.985 2.486-.763.581-.843.674-1.083 1.605.257.469.45.853.832 1.24 1.233.362 1.607.192 2.74-.406zM149.793 213.144c-.524-.331-1.319-.53-1.931-.601-.994.02-1.703.141-2.428.875-.683.689-.944 1.501-.933 2.463.007.588.219 1.072.487 1.583.829.669 1.456 1.034 2.488 1.304 1.1-.012 1.667.041 2.544-.732.735-.648 1.024-1.554 1.22-2.477-.328-1.064-.442-1.779-1.447-2.415zM339.71 290.216l5.676-1.754c1.684-.499 3.425-.692 4.886-1.738l.024-.603c-.718-.674-1.264-.872-2.205-1.135-2.914.137-7.762 1.137-10.139 2.799-.135 1.032-.016 1.195.446 2.144.475.191.794.338 1.311.285l.001.002zM176.225 272.471l.263.105c1.253.086 2.126-.508 3.03-1.3 1.142-1.002 2.023-2.056 3.318-2.896l.344-1.136c-.624-1.108-1.063-1.169-2.248-1.549l-.142-.033c-1.294.286-4.874 1.401-5.626 2.483-.522.751-.593 1.731-.343 2.595.199.686.78 1.385 1.406 1.73l-.002.001zM132.948 345.134c-.519-.471-.517-.44-1.221-.459-2.609.364-6.437 1.684-8.138 3.799-.534.662-.794 1.381-.638 2.215.107.576.571 1.196 1.04 1.541l.189.11c1.085.293 1.393.396 2.467.133.86-.845 1.587-1.921 1.833-3.118 1.486-1.004 3.005-1.966 4.293-3.224l.176-.995-.001-.002zM145.011 266.115c.28.092.408.081.679.09 2.535-.593 5.17-2.534 7.5-3.729.536-1.014 1.053-1.835 1.064-3.015-.52-.651-.82-.92-1.662-1.086l-.33-.032c-2.917 1.314-7.205 2.989-8.582 6.079.3.813.412 1.389 1.33 1.692l.001.001zM149.664 177.656c.367-.856.253-1.152.129-2.057-.48-.422-.588-.476-1.215-.609-3.075.532-5.534 3.137-7.804 5.113-1.147.998-2.651 2.13-3.482 3.396-.428.652-.636 1.563-.853 2.309l.387.842c.413.105.827.238 1.252.27 2.136-.717 4.171-3.432 5.839-4.958 1.825-1.672 3.609-3.052 5.746-4.305l.001-.001zM153.425 272.242c1.07-.084 1.976-.624 2.717-1.391.146-.151.222-.304.333-.477.572-.884 1.635-1.436 2.517-1.97 2.857-1.724 6.016-2.955 9.064-4.301 1.284-.565 3.125-1.14 3.737-2.496-.486-.936-.479-.925-1.472-1.282-3.509.349-14.968 5.617-17.19 8.245-.604.714-.802 1.17-.65 2.101.098.602.488 1.171.941 1.57l.003.001zM128.445 336.843c-4.881.644-10.261 4.24-14.441 6.744-2.116 1.27-4.425 2.457-6.204 4.186-.151.842-.149 1.341.311 2.106l.235.311c1.071.369 1.467.591 2.564.096 1.858-.839 3.61-2.704 5.193-3.991 1.884-1.534 3.964-2.952 6.033-4.221 1.948-1.195 5.859-2.472 7-4.262-.216-.561-.121-.702-.691-.967v-.002zM124.14 332.001l.106-.639c-.479-.572-.511-.652-1.223-.845-1.711.543-3.406 1.111-5.004 1.937-4.89 2.524-9.404 5.779-13.932 8.883-1.455.996-3.8 2.091-4.699 3.652-.187.324-.233.631-.291.996l.39.865.648.151 2.246-.918c4.049-1.543 7.582-5.414 11.2-7.848 3.379-2.272 7.03-4.203 10.56-6.235l-.001.001zM126.002 322.539l.098-.841c-.514-.536-.561-.539-1.295-.674-5.612 2.595-10.149 5.604-15.217 9.074-1.727 1.182-3.55 2.203-5.221 3.469-1.325 1.003-2.477 2.214-3.802 3.217-1.672 1.265-3.961 2.328-5.26 3.968l.154.972 1.076.386c1.347-.272 2.388-.905 3.522-1.649 3.735-2.453 7.066-5.523 10.749-8.078l15.198-9.843-.002-.001zM147.277 169.53c.166-.196.225-.318.366-.551-.237-.757-.52-1.407-1.266-1.787l-1.58-.579c-4.974.889-15.9 8.718-18.879 13.005-.673.967-1.208 2.092-.949 3.291.169.784.541 1.376 1.228 1.799l1 .473c2.57-.357 5.326-4.605 7.291-6.379 2.664-2.404 5.841-4.654 8.822-6.665 1.128-.761 3.116-1.602 3.97-2.605l-.003-.002z" fill="#474168"/><path d="m135.839 225.827.713-10.618c.163-2.822 0-5.554 1.274-8.163 3.417-1.592 24.188 1.319 29.412 1.741l54.951 4.135 89.977 11.606 56.363 9.094 9.1 1.851c1.643.337 3.499.577 5.057 1.16.939.35 1.128.535 1.636 1.383.025 2.063-.06 4.093-.343 6.14-.543 3.934-2.99 13.561-.263 16.523.89.419 1.612.6 2.576.275.972-.329 1.691-.875 2.074-1.834.723-1.811.816-4.268 1.096-6.201.773-5.378 2.537-12.784.201-17.88-1.064-2.321-2.679-3.675-5.048-4.533l-.556-.192-16.054-2.463-23.191-4.127-60.076-8.277-29.28-3.831-26.88-2.692-26.602-3.107-34.992-2.368-11.227-1.008c-4.516-.504-9-1.065-13.556-1.098-2.413-.017-5.028-.01-7.072 1.462-2.415 1.74-2.922 4.786-3.288 7.559-.434 3.309-1.509 19.584-.059 21.626.36.507.645.542 1.22.767.908-.243 1.192-.216 1.691-1.083.875-1.522 1.01-4.101 1.144-5.839l.002-.008zM354.304 335.041c-5.401-1.464-10.649-.186-15.445 2.549-6.205 3.538-11.733 9.824-13.607 16.806-1.628 6.068-.128 11.666 3.023 16.962 3.726 6.263 10.438 10.387 17.166 12.661 6.468 1.675 12.326.913 18.06-2.524 4.519-2.707 8.143-7.961 9.547-13.006 1.929-6.928 1.556-13.111-1.923-19.512-3.086-5.678-10.748-11.817-16.823-13.935l.002-.001zM334.68 354.61c.099 1.303.65 2.655 1.079 3.887 1.691 4.856 4.229 8.224 8.036 11.572 7.164.044 13.954-6.865 19.689-10.616l4.331-3.342c.935 2.015 1.008 5.468.638 7.654-.772 4.562-2.862 8.207-6.677 10.826-3.929 2.698-7.302 3.574-11.966 2.686-6.807-1.295-11.842-3.858-15.807-9.676-2.604-3.821-4.089-8.587-3.128-13.212 1.039-4.996 4.844-10.107 9.039-12.888 3.984-2.64 8.016-3.027 12.587-2.115 3.908 1.324 6.732 4.202 9.688 6.952-5.791 4.626-10.701 10.286-16.753 14.575-1.1-2.839-1.387-6.243-2.747-8.935-.268-.53-.76-1.302-1.342-1.458-.857-.229-2.329.254-3.024.749-.963.689-2.605 1.284-3.332 2.159-.346.416-.349.676-.311 1.18v.002z" fill="#474168"/><path d="M338.323 351.27c.695-.496 2.167-.978 3.024-.748.582.156 1.074.926 1.342 1.458 1.359 2.691 1.647 6.096 2.746 8.934 6.053-4.289 10.963-9.948 16.754-14.574-2.956-2.751-5.78-5.629-9.689-6.953-4.571-.911-8.601-.526-12.586 2.116-4.196 2.78-8 7.892-9.039 12.887-.961 4.624.524 9.391 3.127 13.213 3.965 5.817 9 8.38 15.807 9.675 4.665.888 8.037.012 11.966-2.686 3.813-2.618 5.905-6.262 6.678-10.825.369-2.185.297-5.64-.639-7.655l-4.33 3.342c-5.734 3.753-12.524 10.661-19.689 10.617-3.807-3.35-6.347-6.719-8.037-11.572-.429-1.233-.98-2.583-1.079-3.888-.038-.504-.035-.764.311-1.18.728-.877 2.369-1.47 3.332-2.159l.001-.002z" fill="#F0E5E3"/><path d="M126.076 273.906c.5 1.441 1.943 3.208 3.344 3.802 2.139.906 4.827 1.269 7.13 1.597l13.92 1.589 20.613 2.923 45.271 4.505 62.975 6.925 15.536 1.805 25.645 4 46.239 5.448c3.313.291 8.894 1.765 11.883.403 1.042-.475 1.698-1.173 2.41-2.044l.234-.281c1.091-1.396 1.563-3.952 1.791-5.678.674-5.113.262-10.466.463-15.63l.467-7.635c.111-1.501.374-3.206.109-4.69-.2-1.117-1.095-2.33-2.059-2.925-.904-.559-2.207-1.091-3.242-1.344l-117.594-17.158-65.318-8.075-46.268-4.3c-3.98-.218-9.149-1.302-12.958-.224-.77.735-1.135 1.107-1.316 2.171.388.963.503 1.11 1.331 1.737l65.047 7.509 114.324 15.218 38.903 5.838 13.177 1.924c3.285.484 6.64.888 9.793 1.965l-.719 13.426c-.098 4.627-.054 9.445-1.123 13.967l-46.642-5.281-39.836-5.612-75.169-8.062-45.287-5.009-15.143-1.957-18.345-1.542c-1.103-.104-2.662-.288-3.355-1.235-.338-.462-.449-1.013-.457-1.578-.038-2.796.82-5.915 1.125-8.727.425-3.914.461-7.892.617-11.825.046-1.164.364-3.214-.014-4.309-.337-.98-1.006-1.374-2.008-1.538-.925-.15-1.749.386-2.466.888-2.181 4.514-1.609 10.49-2.201 15.402-.411 3.419-1.232 6.952-1.322 10.387a9.166 9.166 0 0 0 .49 3.235l.005-.005z" fill="#474168"/></g><defs><clipPath id="a"><path fill="#fff" transform="rotate(22.39 87.638 442.794)" d="M0 0h392.865v460.14H0z"/></clipPath></defs></svg>