<svg width="539" height="576" viewBox="0 0 539 576" fill="none" xmlns="http://www.w3.org/2000/svg">
<g clip-path="url(#clip0_4565_24567)">
<path d="M146.318 450.46C145.729 450.125 145.087 449.906 144.444 449.698C142.05 449.433 140.629 449.852 138.738 451.348C137.163 452.596 135.94 454.498 135.673 456.516C135.474 458.01 136.214 460.048 137.2 461.172C138.685 462.853 140.814 463.633 142.983 463.913C145.272 463.909 147.683 463.378 149.377 461.707C149.611 461.475 149.773 461.226 149.955 460.958L150.127 460.711C150.992 459.384 150.874 457.407 150.501 455.933C149.88 453.492 148.513 451.713 146.318 450.46ZM146.257 458.902C145.141 459.288 144.403 459.172 143.264 458.927C142.023 458.063 141.025 457.488 140.406 456.082C140.623 455.317 140.705 454.808 141.496 454.408C142.427 453.936 143.397 454.005 144.378 454.225L144.714 454.343C145.804 454.889 146.341 455.69 146.671 456.838C146.9 457.628 146.673 458.246 146.257 458.902Z" fill="#474168"/>
<path d="M144.715 454.344L144.379 454.226C143.399 454.006 142.428 453.939 141.498 454.409C140.707 454.809 140.625 455.317 140.408 456.083C141.027 457.489 142.025 458.064 143.265 458.928C144.405 459.171 145.144 459.287 146.259 458.903C146.675 458.246 146.901 457.629 146.673 456.838C146.343 455.69 145.805 454.89 144.715 454.344Z" fill="#F0E5E3"/>
<path d="M377.827 99.6313C378.838 100.577 379.944 101.042 381.299 101.268C384.346 101.158 387.419 100.669 389.577 98.2535C390.661 97.0389 391.41 95.4784 391.318 93.8294C391.179 91.3229 389.223 89.3041 387.379 87.7967C386.547 87.1159 385.719 86.6526 384.707 86.2977C382 86.1393 379.843 86.2279 377.695 88.1049L376.706 89.1079C375.421 90.5195 374.881 91.7825 374.941 93.7294C375.018 96.2188 376.037 97.9604 377.826 99.6328L377.827 99.6313ZM380.028 91.104C381.047 90.0717 382.317 89.7481 383.723 89.7822C384.081 89.8359 384.423 89.8831 384.762 90.0144C386.303 90.6109 387.471 92.3702 388.028 93.8494C387.853 94.4615 387.665 95.08 387.292 95.6039C386.203 97.131 384.587 97.6116 382.85 97.9179C381.97 97.6943 380.965 97.4928 380.232 96.9331C379.122 96.086 378.852 95.0111 378.717 93.6856C379.03 92.7673 379.33 91.8103 380.028 91.104Z" fill="#474168"/>
<path d="M380.234 96.9337C380.967 97.492 381.971 97.6949 382.851 97.9185C384.589 97.6122 386.204 97.1316 387.294 95.6045C387.667 95.0806 387.855 94.4621 388.03 93.85C387.473 92.3708 386.305 90.6115 384.764 90.015C384.425 89.8837 384.083 89.8365 383.725 89.7828C382.318 89.7502 381.049 90.0723 380.03 91.1046C379.332 91.811 379.033 92.7685 378.718 93.6862C378.854 95.0103 379.123 96.0866 380.234 96.9337Z" fill="#F0E5E3"/>
<path d="M379.099 157.314C380.299 158.816 382.287 159.59 384.163 159.752L384.472 159.774C387.978 159.301 391.441 157.977 393.735 155.138C394.867 153.737 395.707 151.336 395.473 149.52C395.135 146.898 393.209 144.975 391.16 143.495C389.705 142.446 388.173 141.482 386.457 140.928C384.002 140.555 382.198 140.278 380.071 141.811C378.208 143.153 376.928 145.134 376.56 147.413C376.111 150.196 377.323 155.092 379.099 157.314ZM382.312 146.388C383.109 145.512 383.774 145.58 384.873 145.494C386.205 145.723 387.894 146.481 388.893 147.426C390.014 148.487 390.209 149.618 390.31 151.09C389.516 153.035 387.629 153.877 385.819 154.661C385.155 154.713 384.761 154.663 384.136 154.482C382.895 152.982 381.623 151.411 381.359 149.41C381.226 148.398 381.622 147.148 382.312 146.39L382.312 146.388Z" fill="#474168"/>
<path d="M384.136 154.482C384.761 154.663 385.155 154.713 385.819 154.661C387.63 153.877 389.516 153.035 390.31 151.09C390.209 149.619 390.014 148.488 388.893 147.426C387.895 146.482 386.207 145.722 384.874 145.494C383.774 145.58 383.107 145.513 382.312 146.388C381.623 147.146 381.226 148.397 381.359 149.408C381.623 151.411 382.893 152.982 384.135 154.48L384.136 154.482Z" fill="#F0E5E3"/>
<path d="M340.867 474.139L340.651 474.265C337.969 475.911 335.675 478.574 333.268 480.624C331.437 482.184 329.338 483.367 327.178 484.406C323.52 486.173 319.353 487.362 315.427 488.365C304.781 491.08 293.583 492.064 282.599 491.574L271.075 490.75C267.738 490.419 264.425 489.939 261.066 489.896C259.864 489.881 258.552 489.797 257.425 490.253L257.559 490.713C264.435 493.858 271.188 494.363 278.619 494.765C294.141 495.603 310.653 494.353 325.314 488.851C330.812 486.788 337.667 482.403 340.199 476.931L341.093 474.615L340.869 474.139L340.867 474.139Z" fill="#474168"/>
<path d="M81.5301 438.448C79.9191 436.603 78.1775 435.62 75.9003 434.779C72.252 433.972 68.5406 433.753 65.2466 435.839C63.3316 437.051 62.1106 439.044 61.6543 441.24C61.0006 444.399 62.2789 448.005 64.0449 450.595C65.5005 452.724 67.3508 453.334 69.7832 453.916C73.6209 454.259 78.3128 453.731 81.3641 451.162C82.8957 449.869 84.118 448.51 84.376 446.438C84.7194 443.704 83.2924 440.466 81.5289 438.451L81.5301 438.448ZM79.7501 448.012C77.7154 449.722 74.5947 449.613 72.123 449.5C70.0546 449.179 68.1375 448.415 66.7031 446.852C65.5624 445.604 64.7006 443.939 64.8907 442.202C65.0196 441.032 66.217 439.494 67.1232 438.794C69.1497 437.229 71.7177 437.36 74.0989 437.754C75.6571 438.269 77.2406 438.788 78.4004 440.001C79.5455 441.194 81.203 443.714 81.0513 445.427C80.9696 446.34 80.4572 447.417 79.7492 448.01L79.7501 448.012Z" fill="#474168"/>
<path d="M78.4014 440.003C77.2416 438.789 75.6587 438.269 74.0999 437.756C71.7181 437.364 69.1507 437.231 67.1242 438.795C66.218 439.496 65.0192 441.033 64.8917 442.204C64.701 443.942 65.562 445.605 66.7041 446.854C68.1385 448.417 70.0556 449.181 72.124 449.502C74.5957 449.615 77.717 449.723 79.7511 448.014C80.459 447.421 80.972 446.342 81.0531 445.431C81.2048 443.718 79.5473 441.198 78.4022 440.005L78.4014 440.003Z" fill="#F0E5E3"/>
<path d="M203.017 132.859C204.33 134.598 206.045 135.519 208.013 136.343C211.414 137.413 214.579 137.289 217.771 135.601C220.357 134.234 222.158 131.398 223.001 128.653C223.79 126.084 223.282 121.563 221.868 119.276C220.804 117.554 219.296 116.12 217.334 115.554C212.989 114.853 209.083 115.18 205.408 117.882C202.792 119.807 201.456 122.004 201.003 125.242C200.637 127.855 201.422 130.751 203.015 132.86L203.017 132.859ZM206.821 120.91C209.403 118.721 212.998 118.22 216.231 118.576C217.008 118.96 217.872 119.326 218.364 120.076C219.724 122.148 220.395 125.001 219.757 127.434C219.14 129.784 217.708 131.58 215.597 132.735C213.212 134.039 210.967 133.58 208.472 132.866L208.318 132.764L208.065 132.591C207.448 132.183 206.815 131.79 206.291 131.262C205.128 130.086 204.228 128.018 204.298 126.34C204.382 124.32 205.274 122.225 206.824 120.911L206.821 120.91Z" fill="#474168"/>
<path d="M206.29 131.261C206.814 131.79 207.447 132.183 208.063 132.591L208.317 132.764L208.471 132.865C210.967 133.58 213.212 134.037 215.596 132.734C217.708 131.58 219.14 129.782 219.756 127.433C220.395 125.001 219.723 122.148 218.363 120.075C217.872 119.326 217.007 118.959 216.23 118.576C212.996 118.218 209.402 118.721 206.82 120.909C205.27 122.223 204.378 124.318 204.294 126.338C204.224 128.016 205.124 130.083 206.287 131.26L206.29 131.261Z" fill="#F0E5E3"/>
<path d="M245.309 115.462C246.099 116.279 247.407 116.567 248.508 116.664C250.161 116.811 252.033 116.485 253.628 116.851C256.881 117.599 257.285 123.36 257.36 126.038C257.421 128.221 257.198 130.522 258.931 132.184L259.657 132.806C261.067 133.4 262.148 133.461 263.583 132.858C264.743 132.369 265.403 131.566 265.86 130.393C267.439 126.333 264.679 119.62 269.481 117.245C272.76 115.622 278.709 119.054 280.241 114.526C280.597 113.476 280.619 112.447 280.075 111.461C279.056 109.618 277.048 108.642 275.336 107.573C272.526 105.82 270.494 104.031 269.286 100.85C268.368 98.4288 268.131 96.2264 268.142 93.6577C268.148 92.1347 268.425 89.8144 267.86 88.3989C267.478 87.4417 266.643 86.9539 265.757 86.5372C264.683 86.404 263.754 86.3794 262.839 87.0448C260.227 88.9431 260.594 92.6329 259.966 95.4609C259.357 98.2015 258.283 101.6 256.479 103.78C255.174 105.354 253.203 106.492 251.285 107.139C248.726 108.001 243.97 107.587 243.731 111.42C243.637 112.936 244.263 114.387 245.305 115.465L245.309 115.462ZM263.567 100.717C264.433 102.936 265.527 105.771 267.162 107.529C268.198 108.641 269.692 109.606 270.917 110.511C269.315 110.679 267.75 110.826 266.268 111.5C263.925 112.564 263.374 113.958 262.507 116.223L262.002 117.183L261.38 115.961C259.987 113.306 258.615 111.568 255.673 110.677L255.259 110.555C259.807 108.06 261.539 105.394 263.568 100.718L263.567 100.717Z" fill="#474168"/>
<path d="M261.378 115.96L262.001 117.182L262.505 116.222C263.373 113.958 263.922 112.563 266.266 111.499C267.75 110.826 269.314 110.678 270.916 110.51C269.69 109.606 268.196 108.642 267.161 107.528C265.526 105.77 264.432 102.935 263.565 100.716C261.537 105.392 259.804 108.059 255.256 110.554L255.671 110.676C258.613 111.565 259.986 113.305 261.377 115.959L261.378 115.96Z" fill="#F0E5E3"/>
<path d="M243.258 482.611C241.494 480.216 240.322 477.606 240.349 474.593C240.383 470.663 241.781 466.666 242.842 462.917C243.239 461.515 243.925 459.803 243.923 458.363C243.92 457.882 243.75 457.002 243.416 456.636C242.696 455.842 241.829 455.567 240.787 455.414C237.488 455.969 234.425 461.521 231.819 463.746C229.353 465.85 226.705 467.236 223.643 468.272C218.979 469.85 213.54 470.156 208.648 469.788C207.091 469.674 205.031 469.066 203.525 469.284C202.595 469.417 202.326 469.721 201.616 470.302C201.177 471.544 201.08 471.75 201.387 473.017C204.836 477.523 218.106 479.122 217.111 486.426C216.372 491.847 213.621 496.745 212.68 502.097C212.713 503.374 212.698 504.29 213.473 505.38C214.313 505.89 214.892 506.119 215.877 506.181C218.451 505.139 220.235 501.715 221.818 499.518C223.712 496.885 225.632 494.337 227.803 491.915C228.26 491.407 229.317 490.083 229.927 489.889C232.777 488.98 238.235 490.284 241.225 491.019C242.387 491.303 244.497 492.111 245.631 491.8C246.841 491.47 247.099 490.595 247.567 489.569C247.678 486.955 244.749 484.622 243.262 482.608L243.258 482.611ZM231.658 483.654C226.132 483.72 223.728 489.3 220.369 492.806L221.518 488.133C221.876 485.876 221.983 483.971 221.741 481.682C219.487 478.17 214.803 475.661 211.154 473.852C213.284 473.967 215.464 474.134 217.589 473.915C225.363 473.107 231.564 469.43 237.31 464.369L235.79 470.092C234.297 476.388 235.937 480.328 239.235 485.708C236.803 484.804 234.29 483.625 231.657 483.656L231.658 483.654Z" fill="#474168"/>
<path d="M235.79 470.092L237.311 464.369C231.565 469.43 225.361 473.106 217.589 473.915C215.464 474.133 213.284 473.968 211.154 473.852C214.803 475.661 219.487 478.17 221.742 481.682C221.983 483.971 221.877 485.877 221.518 488.133L220.37 492.806C223.729 489.3 226.134 483.721 231.658 483.654C234.291 483.623 236.806 484.803 239.236 485.707C235.937 480.326 234.297 476.388 235.79 470.09L235.79 470.092Z" fill="#F0E5E3"/>
<path d="M422.158 431.05C425.128 421.033 426.771 410.602 429.089 400.423L439.866 352.558L445.27 324.052L452.313 285.29C453.281 279.526 454.688 273.437 455.006 267.61C455.267 262.812 454.751 257.912 453.069 253.391C451.711 249.738 449.796 246.731 446.763 244.261C446.126 243.743 442.679 241.821 442.749 241.465C443.359 238.328 443.038 235.121 442.662 231.977C441.711 224.023 439.691 216.437 435.119 209.756C427.389 198.464 416.432 191.193 403.415 187.241C397.659 185.494 391.679 184.318 385.832 182.928L359.64 177.075L262.395 159.705L198.876 150.302L164.581 145.735C154.668 144.684 144.627 143.778 134.676 144.919C129.393 145.525 124.722 147.351 120.484 150.58C107.904 160.169 102.243 175.666 98.0193 190.292C96.0466 197.123 94.214 204.029 92.9053 211.024L89.9379 229.461L80.8402 281.604C78.9948 296.038 77.441 310.483 76.8802 325.029C76.5428 333.772 76.2781 342.18 77.5386 350.87C78.2551 355.817 79.4948 360.992 82.6053 365.017C85.4054 368.638 90.4649 372.002 95.1274 372.326L95.4649 372.331C96.4575 372.387 97.7658 373.098 98.7064 373.467C97.9321 382.43 96.1515 395.424 102.384 402.753C102.804 403.249 104.19 404.429 104.377 404.904C104.606 405.485 104.342 407.667 104.36 408.442C104.494 414.339 106.359 420.112 110.843 424.122C114.027 426.973 118.066 428.458 122.138 429.564C131.508 432.109 141.482 432.99 151.06 434.521L227.643 444.661L258.519 448.197L302.091 454.722L342.133 459.743C358.816 461.81 376.124 464.391 392.944 463.897C395.028 463.836 398.805 464 400.573 462.934C400.737 462.329 400.86 461.82 400.889 461.189C402.806 460.195 404.533 459.098 406.096 457.598C408.43 455.362 409.888 452.667 413.08 451.551C414.101 451.194 414.472 449.878 414.893 448.957C417.574 443.092 420.314 437.252 422.153 431.048L422.158 431.05ZM418.233 281.62C418.964 280.629 420.212 280.33 421.362 280.21C421.746 280.263 421.988 280.312 422.34 280.464C423.946 281.152 424.917 282.588 425.546 284.154C426.411 286.309 427.187 288.72 426.085 290.946C425.368 292.399 423.639 292.945 422.211 293.405C421.008 293.331 420.254 293.153 419.207 292.546C418.87 291.902 418.697 291.337 418.539 290.634C417.987 288.177 416.566 283.876 418.232 281.618L418.233 281.62ZM418.504 313.131C418.924 313.208 419.331 313.328 419.721 313.503C420.48 313.846 421.025 314.557 421.293 315.335C421.975 317.303 421.633 323.032 420.563 324.934C419.755 326.371 418.657 326.63 417.173 326.995C416.512 326.914 416.057 326.798 415.452 326.505C414.927 326.251 414.603 326.06 414.464 325.448C414.026 323.512 414.994 315.818 416.235 314.244C416.838 313.478 417.578 313.27 418.502 313.131L418.504 313.131ZM96.3848 366.101C92.2462 364.47 88.3893 362.687 86.1772 358.577C82.3094 351.394 82.2433 341.571 82.1061 333.549C81.8186 316.697 83.5691 300.3 85.663 283.609L89.9667 252.505L95.632 223.945L97.8545 211.236L104.681 184.437C108.3 172.688 114.809 158.324 126.227 152.381C134.117 148.274 143.868 148.935 152.533 149.351C165.932 149.996 179.561 152.256 192.834 154.238L243.132 161.963L352.611 180.448C369.724 184.063 386.779 188.418 403.454 193.693C409.565 195.563 418.364 199.113 421.698 204.93C424.955 210.614 425.089 218.595 424.592 224.987C423.955 233.211 421.95 241.481 420.319 249.56L411.386 292.382L403.574 332.788C401.394 344.918 399.54 357.431 396.381 369.345C393.684 379.505 390.137 388.878 380.523 394.316C376.166 396.781 371.693 396.907 366.82 396.799L346.168 395.383L301.988 390.73L236.307 383.613L216.584 381.208L159.676 375.524C138.349 373.537 117.095 371.886 96.384 366.099L96.3848 366.101ZM105.029 394.82C103.75 390.533 103.695 385.991 104.133 381.575C110.89 383.802 118.038 384.737 125.046 385.869L160.843 391.141L271.836 404.983L341.571 412.762L372.157 413.424C377.563 413.418 383.059 413.838 388.45 413.509C393.329 413.213 398.795 411.2 402.474 407.924C404.058 406.512 405.454 404.72 406.854 403.12L407.04 403.541C403.583 414.354 398.455 429.299 387.779 435.088C380.96 438.785 371.629 437.625 364.068 437.203C342.005 435.972 319.932 432.597 298.043 429.662L245.464 422.958L202.665 416.89L154.501 410.64C141.916 409.038 128.659 407.859 116.493 404.207L114.295 403.461C109.466 401.583 107.116 399.556 105.03 394.818L105.029 394.82ZM401.203 454.155C395.46 457.064 389.046 457.528 382.716 457.32C373.549 457.018 364.437 455.668 355.343 454.533L329.666 451.679L310.013 449.711L252.079 441.905L224.199 438.469L167.206 430.1L144.44 427.008C136.155 426.01 127.929 425.337 119.97 422.658C117.674 421.687 115.657 420.354 113.935 418.534C111.047 415.492 110.264 411.398 110.374 407.336C112.973 408.258 115.609 409.468 118.25 410.213C122.87 411.512 127.966 412.072 132.711 412.794L162.947 416.89L251.771 428.639L291.283 433.491L323.885 437.643L353.557 440.308L373.007 441.782C375.705 441.93 378.617 442.275 381.309 442.032C385.888 441.618 390.434 439.546 394.067 436.782C399.713 432.489 402.692 426.148 405.513 419.838C413.999 400.87 417.819 380.151 421.579 359.844L431.921 295.923L436.255 273.557C438.281 264.357 440.524 255.193 441.782 245.847C443.694 247.583 445.831 249.643 447.058 251.939C449.539 256.579 450.593 262.22 450.372 267.448C450.059 274.894 448.243 282.864 446.848 290.185L441.931 316.299L434.052 357.52L425.183 394.653C422.131 408.038 419.85 421.592 415.674 434.702C413.143 442.65 408.916 450.247 401.204 454.153L401.203 454.155Z" fill="#474168"/>
<path d="M414.466 325.447C414.605 326.06 414.927 326.251 415.454 326.505C416.058 326.797 416.512 326.912 417.174 326.994C418.657 326.63 419.757 326.372 420.565 324.933C421.635 323.032 421.977 317.302 421.295 315.335C421.026 314.558 420.482 313.845 419.723 313.502C419.333 313.327 418.926 313.207 418.506 313.13C417.583 313.266 416.842 313.475 416.239 314.242C414.997 315.818 414.03 323.511 414.468 325.446L414.466 325.447Z" fill="#F0E5E3"/>
<path d="M419.207 292.546C420.254 293.153 421.006 293.332 422.211 293.405C423.639 292.945 425.367 292.398 426.086 290.946C427.185 288.719 426.411 286.307 425.546 284.154C424.917 282.588 423.946 281.152 422.34 280.464C421.988 280.312 421.747 280.263 421.362 280.21C420.213 280.331 418.964 280.629 418.233 281.62C416.567 283.878 417.987 288.179 418.539 290.636C418.698 291.339 418.871 291.902 419.208 292.548L419.207 292.546Z" fill="#F0E5E3"/>
<path d="M143.282 352.217C142.912 351.421 142.214 351.048 141.384 350.845C141.127 350.783 141.042 350.796 140.806 350.803C139.638 351.079 139.387 351.056 138.612 351.945C138.28 352.999 138.194 353.812 138.73 354.827C139.113 355.556 139.534 355.983 140.375 356.089L140.714 356.1C141.91 355.877 142.388 355.399 143.185 354.509C143.464 353.743 143.646 353 143.282 352.217Z" fill="#474168"/>
<path d="M198.715 274.112C199.688 273.862 200.583 273.804 201.137 272.851C201.689 271.901 201.294 271.312 200.926 270.401C200.092 269.689 199.291 269.342 198.268 268.962C197.192 269.103 196.637 269.025 195.802 269.802C195.558 270.914 195.403 271.506 196.039 272.561C196.657 273.587 197.607 273.929 198.715 274.112Z" fill="#474168"/>
<path d="M353.982 295.584C354.972 295.911 355.738 295.83 356.674 295.367C358.25 294.586 360.99 293.013 361.592 291.389C361.215 290.879 361.187 290.836 360.589 290.635C358.535 290.551 354.849 292.298 353.293 293.597C353.125 294.412 353.285 294.713 353.801 295.392L353.984 295.584L353.982 295.584Z" fill="#474168"/>
<path d="M175.48 217.429C174.927 217.86 174.61 218.588 174.562 219.278C174.508 220.048 174.91 220.985 175.504 221.481C175.869 221.785 176.35 221.982 176.779 222.175C177.947 222.22 178.592 222.116 179.608 221.53C180.247 220.599 180.442 220.039 180.449 218.907C179.975 218.013 179.522 217.165 178.591 216.68C177.477 216.606 176.395 216.715 175.478 217.428L175.48 217.429Z" fill="#474168"/>
<path d="M149.432 186.695C150.253 187.146 150.862 187.485 151.806 187.556C152.861 187.417 153.148 187.393 153.988 186.765C154.607 184.912 154.312 184.086 153.467 182.38C153.129 181.697 153.107 181.457 152.319 181.226L152.017 181.18C150.34 182.045 150.065 182.681 149.005 184.202C148.901 185.387 148.929 185.621 149.433 186.697L149.432 186.695Z" fill="#474168"/>
<path d="M163.32 214.683L161.841 214.211C160.731 214.27 159.594 214.358 158.817 215.265C158.397 215.757 158.33 216.544 158.246 217.163C158.741 218.398 159.044 219.741 160.405 220.256L160.797 220.393C161.95 220.25 163.056 220.01 163.81 219.042C164.333 218.371 164.553 217.503 164.365 216.673C164.196 215.924 163.753 215.303 163.318 214.684L163.32 214.683Z" fill="#474168"/>
<path d="M321.159 287.858C322.245 287.285 323.242 286.592 324.372 286.099C325.875 285.445 328.14 284.889 329.279 283.702C329.074 283.194 329.181 283.191 328.655 282.933C325.747 282.53 321.008 283.639 318.67 285.419C317.907 286 317.827 286.093 317.587 287.024C317.844 287.493 318.037 287.877 318.419 288.264C319.652 288.626 320.026 288.456 321.159 287.858Z" fill="#474168"/>
<path d="M149.793 213.144C149.269 212.813 148.474 212.614 147.862 212.543C146.868 212.563 146.159 212.684 145.434 213.418C144.751 214.107 144.49 214.919 144.501 215.881C144.508 216.469 144.72 216.953 144.988 217.464C145.817 218.133 146.444 218.498 147.476 218.768C148.576 218.756 149.143 218.809 150.02 218.036C150.755 217.388 151.044 216.482 151.24 215.559C150.912 214.495 150.798 213.78 149.793 213.144Z" fill="#474168"/>
<path d="M339.71 290.216L345.386 288.462C347.07 287.963 348.811 287.77 350.272 286.724L350.296 286.121C349.578 285.447 349.032 285.249 348.091 284.986C345.177 285.123 340.329 286.123 337.952 287.785C337.817 288.817 337.936 288.98 338.398 289.929C338.873 290.12 339.192 290.267 339.709 290.214L339.71 290.216Z" fill="#474168"/>
<path d="M176.225 272.471L176.488 272.576C177.741 272.662 178.614 272.068 179.518 271.276C180.66 270.274 181.541 269.22 182.836 268.38L183.18 267.244C182.556 266.136 182.117 266.075 180.932 265.695L180.79 265.662C179.496 265.948 175.916 267.063 175.164 268.145C174.642 268.896 174.571 269.876 174.821 270.74C175.02 271.426 175.601 272.125 176.227 272.47L176.225 272.471Z" fill="#474168"/>
<path d="M132.948 345.134C132.429 344.663 132.431 344.694 131.727 344.675C129.118 345.039 125.29 346.359 123.589 348.474C123.055 349.136 122.795 349.855 122.951 350.689C123.058 351.265 123.522 351.885 123.991 352.23L124.18 352.34C125.265 352.633 125.573 352.736 126.647 352.473C127.507 351.628 128.234 350.552 128.48 349.355C129.966 348.351 131.485 347.389 132.773 346.131L132.949 345.136L132.948 345.134Z" fill="#474168"/>
<path d="M145.011 266.115C145.291 266.207 145.419 266.196 145.69 266.205C148.225 265.612 150.86 263.671 153.19 262.476C153.726 261.462 154.243 260.641 154.254 259.461C153.734 258.81 153.434 258.541 152.592 258.375L152.262 258.343C149.345 259.657 145.057 261.332 143.68 264.422C143.98 265.235 144.092 265.811 145.01 266.114L145.011 266.115Z" fill="#474168"/>
<path d="M149.664 177.656C150.031 176.8 149.917 176.504 149.793 175.599C149.313 175.177 149.205 175.123 148.578 174.99C145.503 175.522 143.044 178.127 140.774 180.103C139.627 181.101 138.123 182.233 137.292 183.499C136.864 184.151 136.656 185.062 136.439 185.808L136.826 186.65C137.239 186.755 137.653 186.888 138.078 186.92C140.214 186.203 142.249 183.488 143.917 181.962C145.742 180.29 147.526 178.91 149.663 177.657L149.664 177.656Z" fill="#474168"/>
<path d="M153.425 272.242C154.495 272.158 155.401 271.618 156.142 270.851C156.288 270.7 156.364 270.547 156.475 270.374C157.047 269.49 158.11 268.938 158.992 268.404C161.849 266.68 165.008 265.449 168.056 264.103C169.34 263.538 171.181 262.963 171.793 261.607C171.307 260.671 171.314 260.682 170.321 260.325C166.812 260.674 155.353 265.942 153.131 268.57C152.527 269.284 152.329 269.74 152.481 270.671C152.579 271.273 152.969 271.842 153.422 272.241L153.425 272.242Z" fill="#474168"/>
<path d="M128.445 336.843C123.564 337.487 118.184 341.083 114.004 343.587C111.888 344.857 109.579 346.044 107.8 347.773C107.649 348.615 107.651 349.114 108.111 349.879L108.346 350.19C109.417 350.559 109.813 350.781 110.91 350.286C112.768 349.447 114.52 347.582 116.103 346.295C117.987 344.761 120.067 343.343 122.136 342.074C124.084 340.879 127.995 339.602 129.136 337.812C128.92 337.251 129.015 337.11 128.445 336.845L128.445 336.843Z" fill="#474168"/>
<path d="M124.14 332.001L124.246 331.362C123.767 330.79 123.735 330.71 123.023 330.517C121.312 331.06 119.617 331.628 118.019 332.454C113.129 334.978 108.615 338.233 104.087 341.337C102.632 342.333 100.287 343.428 99.3882 344.989C99.201 345.313 99.1547 345.62 99.0967 345.985L99.4867 346.85L100.135 347.001L102.381 346.083C106.43 344.54 109.963 340.669 113.581 338.235C116.96 335.963 120.611 334.032 124.141 332L124.14 332.001Z" fill="#474168"/>
<path d="M126.002 322.539L126.1 321.698C125.586 321.162 125.539 321.159 124.805 321.024C119.193 323.619 114.656 326.628 109.588 330.098C107.861 331.28 106.038 332.301 104.367 333.567C103.042 334.57 101.89 335.781 100.565 336.784C98.8926 338.049 96.604 339.112 95.3059 340.752L95.4594 341.724L96.5351 342.11C97.8819 341.838 98.9227 341.205 100.057 340.461C103.792 338.008 107.123 334.938 110.806 332.383L126.004 322.54L126.002 322.539Z" fill="#474168"/>
<path d="M147.277 169.53C147.443 169.334 147.502 169.212 147.643 168.979C147.406 168.222 147.123 167.572 146.377 167.192L144.797 166.613C139.823 167.502 128.897 175.331 125.918 179.618C125.245 180.585 124.71 181.71 124.969 182.909C125.138 183.693 125.51 184.285 126.197 184.708L127.197 185.181C129.767 184.824 132.523 180.576 134.488 178.802C137.152 176.398 140.329 174.148 143.31 172.137C144.438 171.376 146.426 170.535 147.28 169.532L147.277 169.53Z" fill="#474168"/>
<path d="M135.839 225.827L136.552 215.209C136.715 212.387 136.552 209.655 137.826 207.046C141.243 205.454 162.014 208.365 167.238 208.787L222.189 212.922L312.166 224.528L368.529 233.622L377.629 235.473C379.272 235.81 381.128 236.05 382.686 236.633C383.625 236.983 383.814 237.168 384.322 238.016C384.347 240.079 384.262 242.109 383.979 244.156C383.436 248.09 380.989 257.717 383.716 260.679C384.606 261.098 385.328 261.279 386.292 260.954C387.264 260.625 387.983 260.079 388.366 259.12C389.089 257.309 389.182 254.852 389.462 252.919C390.235 247.541 391.999 240.135 389.663 235.039C388.599 232.718 386.984 231.364 384.615 230.506L384.059 230.314L368.005 227.851L344.814 223.724L284.738 215.447L255.458 211.616L228.578 208.924L201.976 205.817L166.984 203.449L155.757 202.441C151.241 201.937 146.757 201.376 142.201 201.343C139.788 201.326 137.173 201.333 135.129 202.805C132.714 204.545 132.207 207.591 131.841 210.364C131.407 213.673 130.332 229.948 131.782 231.99C132.142 232.497 132.427 232.532 133.002 232.757C133.91 232.514 134.194 232.541 134.693 231.674C135.568 230.152 135.703 227.573 135.837 225.835L135.839 225.827Z" fill="#474168"/>
<path d="M354.304 335.041C348.903 333.577 343.655 334.855 338.859 337.59C332.654 341.128 327.126 347.414 325.252 354.396C323.624 360.464 325.124 366.062 328.275 371.358C332.001 377.621 338.713 381.745 345.441 384.019C351.909 385.694 357.767 384.932 363.501 381.495C368.02 378.788 371.644 373.534 373.048 368.489C374.977 361.561 374.604 355.378 371.125 348.977C368.039 343.299 360.377 337.16 354.302 335.042L354.304 335.041ZM334.68 354.61C334.779 355.913 335.33 357.265 335.759 358.497C337.45 363.353 339.988 366.721 343.795 370.069C350.959 370.113 357.749 363.204 363.484 359.453L367.815 356.111C368.75 358.126 368.823 361.579 368.453 363.765C367.681 368.327 365.591 371.972 361.776 374.591C357.847 377.289 354.474 378.165 349.81 377.277C343.003 375.982 337.968 373.419 334.003 367.601C331.399 363.78 329.914 359.014 330.875 354.389C331.914 349.393 335.719 344.282 339.914 341.501C343.898 338.861 347.93 338.474 352.501 339.386C356.409 340.71 359.233 343.588 362.189 346.338C356.398 350.964 351.488 356.624 345.436 360.913C344.336 358.074 344.049 354.67 342.689 351.978C342.421 351.448 341.929 350.676 341.347 350.52C340.49 350.291 339.018 350.774 338.323 351.269C337.36 351.958 335.718 352.553 334.991 353.428C334.645 353.844 334.642 354.104 334.68 354.608L334.68 354.61Z" fill="#474168"/>
<path d="M338.323 351.27C339.018 350.774 340.49 350.292 341.347 350.522C341.929 350.678 342.421 351.448 342.689 351.98C344.048 354.671 344.336 358.076 345.435 360.914C351.488 356.625 356.398 350.966 362.189 346.34C359.233 343.589 356.409 340.711 352.5 339.387C347.929 338.476 343.899 338.861 339.914 341.503C335.718 344.283 331.914 349.395 330.875 354.39C329.914 359.014 331.399 363.781 334.002 367.603C337.967 373.42 343.002 375.983 349.809 377.278C354.474 378.166 357.846 377.29 361.775 374.592C365.588 371.974 367.68 368.33 368.453 363.767C368.822 361.582 368.75 358.127 367.814 356.112L363.484 359.454C357.75 363.207 350.96 370.115 343.795 370.071C339.988 366.721 337.448 363.352 335.758 358.499C335.329 357.266 334.778 355.916 334.679 354.611C334.641 354.107 334.644 353.847 334.99 353.431C335.718 352.554 337.359 351.961 338.322 351.272L338.323 351.27Z" fill="#F0E5E3"/>
<path d="M126.076 273.906C126.576 275.347 128.019 277.114 129.42 277.708C131.559 278.614 134.247 278.977 136.55 279.305L150.47 280.894L171.083 283.817L216.354 288.322L279.329 295.247L294.865 297.052L320.51 301.052L366.749 306.5C370.062 306.791 375.643 308.265 378.632 306.903C379.674 306.428 380.33 305.73 381.042 304.859L381.276 304.578C382.367 303.182 382.839 300.626 383.067 298.9C383.741 293.787 383.329 288.434 383.53 283.27L383.997 275.635C384.108 274.134 384.371 272.429 384.106 270.945C383.906 269.828 383.011 268.615 382.047 268.02C381.143 267.461 379.84 266.929 378.805 266.676L261.211 249.518L195.893 241.443L149.625 237.143C145.645 236.925 140.476 235.841 136.667 236.919C135.897 237.654 135.532 238.026 135.351 239.09C135.739 240.053 135.854 240.2 136.682 240.827L201.729 248.336L316.053 263.554L354.956 269.392L368.133 271.316C371.418 271.8 374.773 272.204 377.926 273.281L377.207 286.707C377.109 291.334 377.153 296.152 376.084 300.674L329.442 295.393L289.606 289.781L214.437 281.719L169.15 276.71L154.007 274.753L135.662 273.211C134.559 273.107 133 272.923 132.307 271.976C131.969 271.514 131.858 270.963 131.85 270.398C131.812 267.602 132.67 264.483 132.975 261.671C133.4 257.757 133.436 253.779 133.592 249.846C133.638 248.682 133.956 246.632 133.578 245.537C133.241 244.557 132.572 244.163 131.57 243.999C130.645 243.849 129.821 244.385 129.104 244.887C126.923 249.401 127.495 255.377 126.903 260.289C126.492 263.708 125.671 267.241 125.581 270.676C125.553 271.768 125.711 272.878 126.071 273.911L126.076 273.906Z" fill="#474168"/>
</g>
<defs>
<clipPath id="clip0_4565_24567">
<rect width="392.865" height="460.14" fill="white" transform="translate(175.275) rotate(22.3905)"/>
</clipPath>
</defs>
</svg>
